<?xml version="1.0" encoding="UTF-8"?>
<!DOCTYPE svg
PUBLIC "-//W3C//DTD SVG 1.1//EN"
       "http://www.w3.org/Graphics/SVG/1.1/DTD/svg11.dtd">
<svg viewBox="44 -10 1658 864" width="1614px" height="874px" xmlns="http://www.w3.org/2000/svg" version="1.1">
   <line x1="72" y1="525" x2="62" y2="525" style="stroke:#0b0;stroke-width:1;"/>
   <line x1="63" y1="209" x2="73" y2="209" style="stroke:#0b0;stroke-width:1;"/>
   <line x1="62" y1="525" x2="63" y2="209" style="stroke:#0b0;stroke-width:1;"/>
   <line x1="64.5" y1="525" x2="68.035533905933" y2="528.53553390593" style="stroke:#0b0;stroke-width:2;"/>
   <line x1="64.5" y1="525" x2="68.035533905933" y2="521.46446609407" style="stroke:#0b0;stroke-width:2;"/>
   <line x1="68" y1="209" x2="64.464466094067" y2="212.53553390593" style="stroke:#0b0;stroke-width:2;"/>
   <line x1="68" y1="209" x2="64.464466094067" y2="205.46446609407" style="stroke:#0b0;stroke-width:2;"/>
   <line x1="72" y1="505" x2="62" y2="505" style="stroke:#b0b;stroke-width:1;"/>
   <line x1="53" y1="683" x2="63" y2="683" style="stroke:#b0b;stroke-width:1;"/>
   <line x1="62" y1="505" x2="53" y2="683" style="stroke:#b0b;stroke-width:1;"/>
   <line x1="64.5" y1="505" x2="68.035533905933" y2="508.53553390593" style="stroke:#b0b;stroke-width:2;"/>
   <line x1="64.5" y1="505" x2="68.035533905933" y2="501.46446609407" style="stroke:#b0b;stroke-width:2;"/>
   <line x1="58" y1="683" x2="54.464466094067" y2="686.53553390593" style="stroke:#b0b;stroke-width:2;"/>
   <line x1="58" y1="683" x2="54.464466094067" y2="679.46446609407" style="stroke:#b0b;stroke-width:2;"/>
   <line x1="659" y1="712" x2="669" y2="712" style="stroke:#0b0;stroke-width:1;"/>
   <line x1="700" y1="428" x2="710" y2="428" style="stroke:#0b0;stroke-width:1;"/>
   <line x1="669" y1="712" x2="700" y2="428" style="stroke:#0b0;stroke-width:1;"/>
   <line x1="666.5" y1="712" x2="662.96446609407" y2="715.53553390593" style="stroke:#0b0;stroke-width:2;"/>
   <line x1="666.5" y1="712" x2="662.96446609407" y2="708.46446609407" style="stroke:#0b0;stroke-width:2;"/>
   <line x1="705" y1="428" x2="701.46446609407" y2="431.53553390593" style="stroke:#0b0;stroke-width:2;"/>
   <line x1="705" y1="428" x2="701.46446609407" y2="424.46446609407" style="stroke:#0b0;stroke-width:2;"/>
   <line x1="455" y1="732" x2="445" y2="732" style="stroke:#b0b;stroke-width:1;"/>
   <line x1="286" y1="485" x2="276" y2="485" style="stroke:#b0b;stroke-width:1;"/>
   <line x1="445" y1="732" x2="286" y2="485" style="stroke:#b0b;stroke-width:1;"/>
   <line x1="447.5" y1="732" x2="451.03553390593" y2="735.53553390593" style="stroke:#b0b;stroke-width:2;"/>
   <line x1="447.5" y1="732" x2="451.03553390593" y2="728.46446609407" style="stroke:#b0b;stroke-width:2;"/>
   <line x1="281" y1="485" x2="284.53553390593" y2="488.53553390593" style="stroke:#b0b;stroke-width:2;"/>
   <line x1="281" y1="485" x2="284.53553390593" y2="481.46446609407" style="stroke:#b0b;stroke-width:2;"/>
   <line x1="63" y1="703" x2="53" y2="703" style="stroke:#0b0;stroke-width:1;"/>
   <line x1="49" y1="819" x2="59" y2="819" style="stroke:#0b0;stroke-width:1;"/>
   <line x1="53" y1="703" x2="49" y2="819" style="stroke:#0b0;stroke-width:1;"/>
   <line x1="55.5" y1="703" x2="59.035533905933" y2="706.53553390593" style="stroke:#0b0;stroke-width:2;"/>
   <line x1="55.5" y1="703" x2="59.035533905933" y2="699.46446609407" style="stroke:#0b0;stroke-width:2;"/>
   <line x1="54" y1="819" x2="50.464466094067" y2="822.53553390593" style="stroke:#0b0;stroke-width:2;"/>
   <line x1="54" y1="819" x2="50.464466094067" y2="815.46446609407" style="stroke:#0b0;stroke-width:2;"/>
   <line x1="267" y1="743" x2="277" y2="743" style="stroke:#c00;stroke-width:1;"/>
   <line x1="336" y1="35" x2="346" y2="35" style="stroke:#c00;stroke-width:1;"/>
   <line x1="277" y1="743" x2="336" y2="35" style="stroke:#c00;stroke-width:1;"/>
   <line x1="274.5" y1="743" x2="270.96446609407" y2="746.53553390593" style="stroke:#c00;stroke-width:2;"/>
   <line x1="274.5" y1="743" x2="270.96446609407" y2="739.46446609407" style="stroke:#c00;stroke-width:2;"/>
   <line x1="341" y1="35" x2="337.46446609407" y2="38.535533905933" style="stroke:#c00;stroke-width:2;"/>
   <line x1="341" y1="35" x2="337.46446609407" y2="31.464466094067" style="stroke:#c00;stroke-width:2;"/>
   <line x1="346" y1="55" x2="336" y2="55" style="stroke:#333;stroke-width:1;"/>
   <line x1="273" y1="36" x2="263" y2="36" style="stroke:#333;stroke-width:1;"/>
   <line x1="336" y1="55" x2="273" y2="36" style="stroke:#333;stroke-width:1;"/>
   <line x1="338.5" y1="55" x2="342.03553390593" y2="58.535533905933" style="stroke:#333;stroke-width:2;"/>
   <line x1="338.5" y1="55" x2="342.03553390593" y2="51.464466094067" style="stroke:#333;stroke-width:2;"/>
   <line x1="268" y1="36" x2="271.53553390593" y2="39.535533905933" style="stroke:#333;stroke-width:2;"/>
   <line x1="268" y1="36" x2="271.53553390593" y2="32.464466094067" style="stroke:#333;stroke-width:2;"/>
   <line x1="346" y1="75" x2="336" y2="75" style="stroke:#cb0;stroke-width:1;"/>
   <line x1="273" y1="69" x2="263" y2="69" style="stroke:#cb0;stroke-width:1;"/>
   <line x1="336" y1="75" x2="273" y2="69" style="stroke:#cb0;stroke-width:1;"/>
   <line x1="338.5" y1="75" x2="342.03553390593" y2="78.535533905933" style="stroke:#cb0;stroke-width:2;"/>
   <line x1="338.5" y1="75" x2="342.03553390593" y2="71.464466094067" style="stroke:#cb0;stroke-width:2;"/>
   <line x1="268" y1="69" x2="271.53553390593" y2="72.535533905933" style="stroke:#cb0;stroke-width:2;"/>
   <line x1="268" y1="69" x2="271.53553390593" y2="65.464466094067" style="stroke:#cb0;stroke-width:2;"/>
   <line x1="346" y1="95" x2="336" y2="95" style="stroke:#b0b;stroke-width:1;"/>
   <line x1="285" y1="98" x2="275" y2="98" style="stroke:#b0b;stroke-width:1;"/>
   <line x1="336" y1="95" x2="285" y2="98" style="stroke:#b0b;stroke-width:1;"/>
   <line x1="338.5" y1="95" x2="342.03553390593" y2="98.535533905933" style="stroke:#b0b;stroke-width:2;"/>
   <line x1="338.5" y1="95" x2="342.03553390593" y2="91.464466094067" style="stroke:#b0b;stroke-width:2;"/>
   <line x1="280" y1="98" x2="283.53553390593" y2="101.53553390593" style="stroke:#b0b;stroke-width:2;"/>
   <line x1="280" y1="98" x2="283.53553390593" y2="94.464466094067" style="stroke:#b0b;stroke-width:2;"/>
   <line x1="346" y1="115" x2="336" y2="115" style="stroke:#c00;stroke-width:1;"/>
   <line x1="282" y1="131" x2="272" y2="131" style="stroke:#c00;stroke-width:1;"/>
   <line x1="336" y1="115" x2="282" y2="131" style="stroke:#c00;stroke-width:1;"/>
   <line x1="338.5" y1="115" x2="342.03553390593" y2="118.53553390593" style="stroke:#c00;stroke-width:2;"/>
   <line x1="338.5" y1="115" x2="342.03553390593" y2="111.46446609407" style="stroke:#c00;stroke-width:2;"/>
   <line x1="277" y1="131" x2="280.53553390593" y2="134.53553390593" style="stroke:#c00;stroke-width:2;"/>
   <line x1="277" y1="131" x2="280.53553390593" y2="127.46446609407" style="stroke:#c00;stroke-width:2;"/>
   <line x1="73" y1="434" x2="63" y2="434" style="stroke:#c00;stroke-width:1;"/>
   <line x1="64" y1="311" x2="74" y2="311" style="stroke:#c00;stroke-width:1;"/>
   <line x1="63" y1="434" x2="64" y2="311" style="stroke:#c00;stroke-width:1;"/>
   <line x1="65.5" y1="434" x2="69.035533905933" y2="437.53553390593" style="stroke:#c00;stroke-width:2;"/>
   <line x1="65.5" y1="434" x2="69.035533905933" y2="430.46446609407" style="stroke:#c00;stroke-width:2;"/>
   <line x1="69" y1="311" x2="65.464466094067" y2="314.53553390593" style="stroke:#c00;stroke-width:2;"/>
   <line x1="69" y1="311" x2="65.464466094067" y2="307.46446609407" style="stroke:#c00;stroke-width:2;"/>
   <line x1="73" y1="414" x2="63" y2="414" style="stroke:#0bf;stroke-width:1;"/>
   <line x1="62" y1="485" x2="72" y2="485" style="stroke:#0bf;stroke-width:1;"/>
   <line x1="63" y1="414" x2="62" y2="485" style="stroke:#0bf;stroke-width:1;"/>
   <line x1="65.5" y1="414" x2="69.035533905933" y2="417.53553390593" style="stroke:#0bf;stroke-width:2;"/>
   <line x1="65.5" y1="414" x2="69.035533905933" y2="410.46446609407" style="stroke:#0bf;stroke-width:2;"/>
   <line x1="67" y1="485" x2="63.464466094067" y2="488.53553390593" style="stroke:#0bf;stroke-width:2;"/>
   <line x1="67" y1="485" x2="63.464466094067" y2="481.46446609407" style="stroke:#0bf;stroke-width:2;"/>
   <line x1="710" y1="448" x2="700" y2="448" style="stroke:#c00;stroke-width:1;"/>
   <line x1="691" y1="587" x2="701" y2="587" style="stroke:#c00;stroke-width:1;"/>
   <line x1="700" y1="448" x2="691" y2="587" style="stroke:#c00;stroke-width:1;"/>
   <line x1="702.5" y1="448" x2="706.03553390593" y2="451.53553390593" style="stroke:#c00;stroke-width:2;"/>
   <line x1="702.5" y1="448" x2="706.03553390593" y2="444.46446609407" style="stroke:#c00;stroke-width:2;"/>
   <line x1="696" y1="587" x2="692.46446609407" y2="590.53553390593" style="stroke:#c00;stroke-width:2;"/>
   <line x1="696" y1="587" x2="692.46446609407" y2="583.46446609407" style="stroke:#c00;stroke-width:2;"/>
   <line x1="710" y1="468" x2="700" y2="468" style="stroke:#b0b;stroke-width:1;"/>
   <line x1="560" y1="35" x2="550" y2="35" style="stroke:#b0b;stroke-width:1;"/>
   <line x1="700" y1="468" x2="560" y2="35" style="stroke:#b0b;stroke-width:1;"/>
   <line x1="702.5" y1="468" x2="706.03553390593" y2="471.53553390593" style="stroke:#b0b;stroke-width:2;"/>
   <line x1="702.5" y1="468" x2="706.03553390593" y2="464.46446609407" style="stroke:#b0b;stroke-width:2;"/>
   <line x1="555" y1="35" x2="558.53553390593" y2="38.535533905933" style="stroke:#b0b;stroke-width:2;"/>
   <line x1="555" y1="35" x2="558.53553390593" y2="31.464466094067" style="stroke:#b0b;stroke-width:2;"/>
   <line x1="914" y1="124" x2="904" y2="124" style="stroke:#cb0;stroke-width:1;"/>
   <line x1="826" y1="39" x2="816" y2="39" style="stroke:#cb0;stroke-width:1;"/>
   <line x1="904" y1="124" x2="826" y2="39" style="stroke:#cb0;stroke-width:1;"/>
   <line x1="906.5" y1="124" x2="910.03553390593" y2="127.53553390593" style="stroke:#cb0;stroke-width:2;"/>
   <line x1="906.5" y1="124" x2="910.03553390593" y2="120.46446609407" style="stroke:#cb0;stroke-width:2;"/>
   <line x1="821" y1="39" x2="824.53553390593" y2="42.535533905933" style="stroke:#cb0;stroke-width:2;"/>
   <line x1="821" y1="39" x2="824.53553390593" y2="35.464466094067" style="stroke:#cb0;stroke-width:2;"/>
   <line x1="914" y1="64" x2="904" y2="64" style="stroke:#333;stroke-width:1;"/>
   <line x1="803" y1="239" x2="793" y2="239" style="stroke:#333;stroke-width:1;"/>
   <line x1="904" y1="64" x2="803" y2="239" style="stroke:#333;stroke-width:1;"/>
   <line x1="906.5" y1="64" x2="910.03553390593" y2="67.535533905933" style="stroke:#333;stroke-width:2;"/>
   <line x1="906.5" y1="64" x2="910.03553390593" y2="60.464466094067" style="stroke:#333;stroke-width:2;"/>
   <line x1="798" y1="239" x2="801.53553390593" y2="242.53553390593" style="stroke:#333;stroke-width:2;"/>
   <line x1="798" y1="239" x2="801.53553390593" y2="235.46446609407" style="stroke:#333;stroke-width:2;"/>
   <line x1="793" y1="259" x2="803" y2="259" style="stroke:#bbb;stroke-width:1;"/>
   <line x1="1429" y1="37" x2="1439" y2="37" style="stroke:#bbb;stroke-width:1;"/>
   <line x1="803" y1="259" x2="1429" y2="37" style="stroke:#bbb;stroke-width:1;"/>
   <line x1="800.5" y1="259" x2="796.96446609407" y2="262.53553390593" style="stroke:#bbb;stroke-width:2;"/>
   <line x1="800.5" y1="259" x2="796.96446609407" y2="255.46446609407" style="stroke:#bbb;stroke-width:2;"/>
   <line x1="1434" y1="37" x2="1430.4644660941" y2="40.535533905933" style="stroke:#bbb;stroke-width:2;"/>
   <line x1="1434" y1="37" x2="1430.4644660941" y2="33.464466094067" style="stroke:#bbb;stroke-width:2;"/>
   <line x1="793" y1="279" x2="803" y2="279" style="stroke:#0bf;stroke-width:1;"/>
   <line x1="700" y1="428" x2="710" y2="428" style="stroke:#0bf;stroke-width:1;"/>
   <line x1="803" y1="279" x2="700" y2="428" style="stroke:#0bf;stroke-width:1;"/>
   <line x1="800.5" y1="279" x2="796.96446609407" y2="282.53553390593" style="stroke:#0bf;stroke-width:2;"/>
   <line x1="800.5" y1="279" x2="796.96446609407" y2="275.46446609407" style="stroke:#0bf;stroke-width:2;"/>
   <line x1="705" y1="428" x2="701.46446609407" y2="431.53553390593" style="stroke:#0bf;stroke-width:2;"/>
   <line x1="705" y1="428" x2="701.46446609407" y2="424.46446609407" style="stroke:#0bf;stroke-width:2;"/>
   <line x1="589" y1="319" x2="579" y2="319" style="stroke:#cb0;stroke-width:1;"/>
   <line x1="286" y1="485" x2="276" y2="485" style="stroke:#cb0;stroke-width:1;"/>
   <line x1="579" y1="319" x2="286" y2="485" style="stroke:#cb0;stroke-width:1;"/>
   <line x1="581.5" y1="319" x2="585.03553390593" y2="322.53553390593" style="stroke:#cb0;stroke-width:2;"/>
   <line x1="581.5" y1="319" x2="585.03553390593" y2="315.46446609407" style="stroke:#cb0;stroke-width:2;"/>
   <line x1="281" y1="485" x2="284.53553390593" y2="488.53553390593" style="stroke:#cb0;stroke-width:2;"/>
   <line x1="281" y1="485" x2="284.53553390593" y2="481.46446609407" style="stroke:#cb0;stroke-width:2;"/>
   <line x1="793" y1="299" x2="803" y2="299" style="stroke:#333;stroke-width:1;"/>
   <line x1="1311" y1="588" x2="1321" y2="588" style="stroke:#333;stroke-width:1;"/>
   <line x1="803" y1="299" x2="1311" y2="588" style="stroke:#333;stroke-width:1;"/>
   <line x1="800.5" y1="299" x2="796.96446609407" y2="302.53553390593" style="stroke:#333;stroke-width:2;"/>
   <line x1="800.5" y1="299" x2="796.96446609407" y2="295.46446609407" style="stroke:#333;stroke-width:2;"/>
   <line x1="1316" y1="588" x2="1312.4644660941" y2="591.53553390593" style="stroke:#333;stroke-width:2;"/>
   <line x1="1316" y1="588" x2="1312.4644660941" y2="584.46446609407" style="stroke:#333;stroke-width:2;"/>
   <line x1="1242" y1="270" x2="1252" y2="270" style="stroke:#0b0;stroke-width:1;"/>
   <line x1="1429" y1="37" x2="1439" y2="37" style="stroke:#0b0;stroke-width:1;"/>
   <line x1="1252" y1="270" x2="1429" y2="37" style="stroke:#0b0;stroke-width:1;"/>
   <line x1="1249.5" y1="270" x2="1245.9644660941" y2="273.53553390593" style="stroke:#0b0;stroke-width:2;"/>
   <line x1="1249.5" y1="270" x2="1245.9644660941" y2="266.46446609407" style="stroke:#0b0;stroke-width:2;"/>
   <line x1="1434" y1="37" x2="1430.4644660941" y2="40.535533905933" style="stroke:#0b0;stroke-width:2;"/>
   <line x1="1434" y1="37" x2="1430.4644660941" y2="33.464466094067" style="stroke:#0b0;stroke-width:2;"/>
   <line x1="1038" y1="290" x2="1028" y2="290" style="stroke:#0b0;stroke-width:1;"/>
   <line x1="924" y1="428" x2="914" y2="428" style="stroke:#0b0;stroke-width:1;"/>
   <line x1="1028" y1="290" x2="924" y2="428" style="stroke:#0b0;stroke-width:1;"/>
   <line x1="1030.5" y1="290" x2="1034.0355339059" y2="293.53553390593" style="stroke:#0b0;stroke-width:2;"/>
   <line x1="1030.5" y1="290" x2="1034.0355339059" y2="286.46446609407" style="stroke:#0b0;stroke-width:2;"/>
   <line x1="919" y1="428" x2="922.53553390593" y2="431.53553390593" style="stroke:#0b0;stroke-width:2;"/>
   <line x1="919" y1="428" x2="922.53553390593" y2="424.46446609407" style="stroke:#0b0;stroke-width:2;"/>
   <line x1="1038" y1="330" x2="1028" y2="330" style="stroke:#333;stroke-width:1;"/>
   <line x1="286" y1="485" x2="276" y2="485" style="stroke:#333;stroke-width:1;"/>
   <line x1="1028" y1="330" x2="286" y2="485" style="stroke:#333;stroke-width:1;"/>
   <line x1="1030.5" y1="330" x2="1034.0355339059" y2="333.53553390593" style="stroke:#333;stroke-width:2;"/>
   <line x1="1030.5" y1="330" x2="1034.0355339059" y2="326.46446609407" style="stroke:#333;stroke-width:2;"/>
   <line x1="281" y1="485" x2="284.53553390593" y2="488.53553390593" style="stroke:#333;stroke-width:2;"/>
   <line x1="281" y1="485" x2="284.53553390593" y2="481.46446609407" style="stroke:#333;stroke-width:2;"/>
   <line x1="1242" y1="310" x2="1252" y2="310" style="stroke:#bbb;stroke-width:1;"/>
   <line x1="1311" y1="588" x2="1321" y2="588" style="stroke:#bbb;stroke-width:1;"/>
   <line x1="1252" y1="310" x2="1311" y2="588" style="stroke:#bbb;stroke-width:1;"/>
   <line x1="1249.5" y1="310" x2="1245.9644660941" y2="313.53553390593" style="stroke:#bbb;stroke-width:2;"/>
   <line x1="1249.5" y1="310" x2="1245.9644660941" y2="306.46446609407" style="stroke:#bbb;stroke-width:2;"/>
   <line x1="1316" y1="588" x2="1312.4644660941" y2="591.53553390593" style="stroke:#bbb;stroke-width:2;"/>
   <line x1="1316" y1="588" x2="1312.4644660941" y2="584.46446609407" style="stroke:#bbb;stroke-width:2;"/>
   <line x1="1321" y1="608" x2="1311" y2="608" style="stroke:#333;stroke-width:1;"/>
   <line x1="1314" y1="457" x2="1324" y2="457" style="stroke:#333;stroke-width:1;"/>
   <line x1="1311" y1="608" x2="1314" y2="457" style="stroke:#333;stroke-width:1;"/>
   <line x1="1313.5" y1="608" x2="1317.0355339059" y2="611.53553390593" style="stroke:#333;stroke-width:2;"/>
   <line x1="1313.5" y1="608" x2="1317.0355339059" y2="604.46446609407" style="stroke:#333;stroke-width:2;"/>
   <line x1="1319" y1="457" x2="1315.4644660941" y2="460.53553390593" style="stroke:#333;stroke-width:2;"/>
   <line x1="1319" y1="457" x2="1315.4644660941" y2="453.46446609407" style="stroke:#333;stroke-width:2;"/>
   <line x1="1321" y1="628" x2="1311" y2="628" style="stroke:#333;stroke-width:1;"/>
   <line x1="1170" y1="717" x2="1160" y2="717" style="stroke:#333;stroke-width:1;"/>
   <line x1="1311" y1="628" x2="1170" y2="717" style="stroke:#333;stroke-width:1;"/>
   <line x1="1313.5" y1="628" x2="1317.0355339059" y2="631.53553390593" style="stroke:#333;stroke-width:2;"/>
   <line x1="1313.5" y1="628" x2="1317.0355339059" y2="624.46446609407" style="stroke:#333;stroke-width:2;"/>
   <line x1="1165" y1="717" x2="1168.5355339059" y2="720.53553390593" style="stroke:#333;stroke-width:2;"/>
   <line x1="1165" y1="717" x2="1168.5355339059" y2="713.46446609407" style="stroke:#333;stroke-width:2;"/>
   <line x1="1321" y1="748" x2="1311" y2="748" style="stroke:#333;stroke-width:1;"/>
   <line x1="560" y1="35" x2="550" y2="35" style="stroke:#333;stroke-width:1;"/>
   <line x1="1311" y1="748" x2="560" y2="35" style="stroke:#333;stroke-width:1;"/>
   <line x1="1313.5" y1="748" x2="1317.0355339059" y2="751.53553390593" style="stroke:#333;stroke-width:2;"/>
   <line x1="1313.5" y1="748" x2="1317.0355339059" y2="744.46446609407" style="stroke:#333;stroke-width:2;"/>
   <line x1="555" y1="35" x2="558.53553390593" y2="38.535533905933" style="stroke:#333;stroke-width:2;"/>
   <line x1="555" y1="35" x2="558.53553390593" y2="31.464466094067" style="stroke:#333;stroke-width:2;"/>
   <line x1="1321" y1="768" x2="1311" y2="768" style="stroke:#c00;stroke-width:1;"/>
   <line x1="560" y1="35" x2="550" y2="35" style="stroke:#c00;stroke-width:1;"/>
   <line x1="1311" y1="768" x2="560" y2="35" style="stroke:#c00;stroke-width:1;"/>
   <line x1="1313.5" y1="768" x2="1317.0355339059" y2="771.53553390593" style="stroke:#c00;stroke-width:2;"/>
   <line x1="1313.5" y1="768" x2="1317.0355339059" y2="764.46446609407" style="stroke:#c00;stroke-width:2;"/>
   <line x1="555" y1="35" x2="558.53553390593" y2="38.535533905933" style="stroke:#c00;stroke-width:2;"/>
   <line x1="555" y1="35" x2="558.53553390593" y2="31.464466094067" style="stroke:#c00;stroke-width:2;"/>
   <line x1="1175" y1="638" x2="1185" y2="638" style="stroke:#0b0;stroke-width:1;"/>
   <line x1="1311" y1="588" x2="1321" y2="588" style="stroke:#0b0;stroke-width:1;"/>
   <line x1="1185" y1="638" x2="1311" y2="588" style="stroke:#0b0;stroke-width:1;"/>
   <line x1="1182.5" y1="638" x2="1178.9644660941" y2="641.53553390593" style="stroke:#0b0;stroke-width:2;"/>
   <line x1="1182.5" y1="638" x2="1178.9644660941" y2="634.46446609407" style="stroke:#0b0;stroke-width:2;"/>
   <line x1="1316" y1="588" x2="1312.4644660941" y2="591.53553390593" style="stroke:#0b0;stroke-width:2;"/>
   <line x1="1316" y1="588" x2="1312.4644660941" y2="584.46446609407" style="stroke:#0b0;stroke-width:2;"/>
   <line x1="971" y1="618" x2="961" y2="618" style="stroke:#0bf;stroke-width:1;"/>
   <line x1="924" y1="428" x2="914" y2="428" style="stroke:#0bf;stroke-width:1;"/>
   <line x1="961" y1="618" x2="924" y2="428" style="stroke:#0bf;stroke-width:1;"/>
   <line x1="963.5" y1="618" x2="967.03553390593" y2="621.53553390593" style="stroke:#0bf;stroke-width:2;"/>
   <line x1="963.5" y1="618" x2="967.03553390593" y2="614.46446609407" style="stroke:#0bf;stroke-width:2;"/>
   <line x1="919" y1="428" x2="922.53553390593" y2="431.53553390593" style="stroke:#0bf;stroke-width:2;"/>
   <line x1="919" y1="428" x2="922.53553390593" y2="424.46446609407" style="stroke:#0bf;stroke-width:2;"/>
   <line x1="1315" y1="378" x2="1305" y2="378" style="stroke:#c00;stroke-width:1;"/>
   <line x1="1314" y1="457" x2="1324" y2="457" style="stroke:#c00;stroke-width:1;"/>
   <line x1="1305" y1="378" x2="1314" y2="457" style="stroke:#c00;stroke-width:1;"/>
   <line x1="1307.5" y1="378" x2="1311.0355339059" y2="381.53553390593" style="stroke:#c00;stroke-width:2;"/>
   <line x1="1307.5" y1="378" x2="1311.0355339059" y2="374.46446609407" style="stroke:#c00;stroke-width:2;"/>
   <line x1="1319" y1="457" x2="1315.4644660941" y2="460.53553390593" style="stroke:#c00;stroke-width:2;"/>
   <line x1="1319" y1="457" x2="1315.4644660941" y2="453.46446609407" style="stroke:#c00;stroke-width:2;"/>
   <line x1="1519" y1="358" x2="1529" y2="358" style="stroke:#cb0;stroke-width:1;"/>
   <line x1="1429" y1="37" x2="1439" y2="37" style="stroke:#cb0;stroke-width:1;"/>
   <line x1="1529" y1="358" x2="1429" y2="37" style="stroke:#cb0;stroke-width:1;"/>
   <line x1="1526.5" y1="358" x2="1522.9644660941" y2="361.53553390593" style="stroke:#cb0;stroke-width:2;"/>
   <line x1="1526.5" y1="358" x2="1522.9644660941" y2="354.46446609407" style="stroke:#cb0;stroke-width:2;"/>
   <line x1="1434" y1="37" x2="1430.4644660941" y2="40.535533905933" style="stroke:#cb0;stroke-width:2;"/>
   <line x1="1434" y1="37" x2="1430.4644660941" y2="33.464466094067" style="stroke:#cb0;stroke-width:2;"/>
   <rect width="204" height="20" x="72" y="455" style="fill:#007;stroke:black;"/>
   <text width="204" height="20" x="77" y="469" style="fill:#fff;" font-family="Arial" font-size="16px"> Accommodation</text>
   <rect width="204" height="20" x="72" y="475" style="fill:#aea;stroke:black;"/>
   <text width="204" height="20" x="77" y="489" style="fill:black;" font-family="Arial" font-size="16px">ID</text>
   <rect width="204" height="20" x="72" y="495" style="fill:none;stroke:black;"/>
   <text width="204" height="20" x="77" y="509" style="fill:black;" font-family="Arial" font-size="16px">Provider_ID</text>
   <rect width="204" height="20" x="72" y="515" style="fill:none;stroke:black;"/>
   <text width="204" height="20" x="77" y="529" style="fill:black;" font-family="Arial" font-size="16px">Room_Type_ID</text>
   <rect width="204" height="20" x="72" y="535" style="fill:none;stroke:black;"/>
   <text width="204" height="20" x="77" y="549" style="fill:black;" font-family="Arial" font-size="16px">Check_In_Date</text>
   <rect width="204" height="20" x="72" y="555" style="fill:none;stroke:black;"/>
   <text width="204" height="20" x="77" y="569" style="fill:black;" font-family="Arial" font-size="16px">Check_Out_Date</text>
   <rect width="204" height="20" x="72" y="575" style="fill:none;stroke:black;"/>
   <text width="204" height="20" x="77" y="589" style="fill:black;" font-family="Arial" font-size="16px">Price_Per_Night</text>
   <rect width="204" height="20" x="72" y="595" style="fill:none;stroke:black;"/>
   <text width="204" height="20" x="77" y="609" style="fill:black;" font-family="Arial" font-size="16px">Booking_Status</text>
   <rect width="204" height="20" x="455" y="662" style="fill:#007;stroke:black;"/>
   <text width="204" height="20" x="460" y="676" style="fill:#fff;" font-family="Arial" font-size="16px"> Accommodation_Join</text>
   <rect width="204" height="20" x="455" y="682" style="fill:#aea;stroke:black;"/>
   <text width="204" height="20" x="460" y="696" style="fill:black;" font-family="Arial" font-size="16px">ID</text>
   <rect width="204" height="20" x="455" y="702" style="fill:none;stroke:black;"/>
   <text width="204" height="20" x="460" y="716" style="fill:black;" font-family="Arial" font-size="16px">Package_ID</text>
   <rect width="204" height="20" x="455" y="722" style="fill:none;stroke:black;"/>
   <text width="204" height="20" x="460" y="736" style="fill:black;" font-family="Arial" font-size="16px">Accommodation_ID</text>
   <rect width="204" height="20" x="63" y="653" style="fill:#007;stroke:black;"/>
   <text width="204" height="20" x="68" y="667" style="fill:#fff;" font-family="Arial" font-size="16px"> Accommodation_Provider</text>
   <rect width="204" height="20" x="63" y="673" style="fill:#aea;stroke:black;"/>
   <text width="204" height="20" x="68" y="687" style="fill:black;" font-family="Arial" font-size="16px">ID</text>
   <rect width="204" height="20" x="63" y="693" style="fill:none;stroke:black;"/>
   <text width="204" height="20" x="68" y="707" style="fill:black;" font-family="Arial" font-size="16px">Type_ID</text>
   <rect width="204" height="20" x="63" y="713" style="fill:none;stroke:black;"/>
   <text width="204" height="20" x="68" y="727" style="fill:black;" font-family="Arial" font-size="16px">Name</text>
   <rect width="204" height="20" x="63" y="733" style="fill:none;stroke:black;"/>
   <text width="204" height="20" x="68" y="747" style="fill:black;" font-family="Arial" font-size="16px">Address_ID</text>
   <rect width="204" height="20" x="59" y="789" style="fill:#007;stroke:black;"/>
   <text width="204" height="20" x="64" y="803" style="fill:#fff;" font-family="Arial" font-size="16px"> Accommodation_Type</text>
   <rect width="204" height="20" x="59" y="809" style="fill:#aea;stroke:black;"/>
   <text width="204" height="20" x="64" y="823" style="fill:black;" font-family="Arial" font-size="16px">ID</text>
   <rect width="204" height="20" x="59" y="829" style="fill:none;stroke:black;"/>
   <text width="204" height="20" x="64" y="843" style="fill:black;" font-family="Arial" font-size="16px">Name</text>
   <rect width="204" height="20" x="346" y="5" style="fill:#007;stroke:black;"/>
   <text width="204" height="20" x="351" y="19" style="fill:#fff;" font-family="Arial" font-size="16px"> Address</text>
   <rect width="204" height="20" x="346" y="25" style="fill:#aea;stroke:black;"/>
   <text width="204" height="20" x="351" y="39" style="fill:black;" font-family="Arial" font-size="16px">ID</text>
   <rect width="204" height="20" x="346" y="45" style="fill:none;stroke:black;"/>
   <text width="204" height="20" x="351" y="59" style="fill:black;" font-family="Arial" font-size="16px">Country_ID</text>
   <rect width="204" height="20" x="346" y="65" style="fill:none;stroke:black;"/>
   <text width="204" height="20" x="351" y="79" style="fill:black;" font-family="Arial" font-size="16px">County_ID</text>
   <rect width="204" height="20" x="346" y="85" style="fill:none;stroke:black;"/>
   <text width="204" height="20" x="351" y="99" style="fill:black;" font-family="Arial" font-size="16px">Town_ID</text>
   <rect width="204" height="20" x="346" y="105" style="fill:none;stroke:black;"/>
   <text width="204" height="20" x="351" y="119" style="fill:black;" font-family="Arial" font-size="16px">Street_ID</text>
   <rect width="204" height="20" x="346" y="125" style="fill:none;stroke:black;"/>
   <text width="204" height="20" x="351" y="139" style="fill:black;" font-family="Arial" font-size="16px">Street_Num</text>
   <rect width="204" height="20" x="59" y="6" style="fill:#007;stroke:black;"/>
   <text width="204" height="20" x="64" y="20" style="fill:#fff;" font-family="Arial" font-size="16px"> Address_Country</text>
   <rect width="204" height="20" x="59" y="26" style="fill:#aea;stroke:black;"/>
   <text width="204" height="20" x="64" y="40" style="fill:black;" font-family="Arial" font-size="16px">ID</text>
   <rect width="204" height="20" x="59" y="46" style="fill:none;stroke:black;"/>
   <text width="204" height="20" x="64" y="60" style="fill:black;" font-family="Arial" font-size="16px">Name</text>
   <rect width="204" height="20" x="59" y="39" style="fill:#007;stroke:black;"/>
   <text width="204" height="20" x="64" y="53" style="fill:#fff;" font-family="Arial" font-size="16px"> Address_County</text>
   <rect width="204" height="20" x="59" y="59" style="fill:#aea;stroke:black;"/>
   <text width="204" height="20" x="64" y="73" style="fill:black;" font-family="Arial" font-size="16px">ID</text>
   <rect width="204" height="20" x="59" y="79" style="fill:none;stroke:black;"/>
   <text width="204" height="20" x="64" y="93" style="fill:black;" font-family="Arial" font-size="16px">Name</text>
   <rect width="204" height="20" x="68" y="101" style="fill:#007;stroke:black;"/>
   <text width="204" height="20" x="73" y="115" style="fill:#fff;" font-family="Arial" font-size="16px"> Address_Street</text>
   <rect width="204" height="20" x="68" y="121" style="fill:#aea;stroke:black;"/>
   <text width="204" height="20" x="73" y="135" style="fill:black;" font-family="Arial" font-size="16px">ID</text>
   <rect width="204" height="20" x="68" y="141" style="fill:none;stroke:black;"/>
   <text width="204" height="20" x="73" y="155" style="fill:black;" font-family="Arial" font-size="16px">Name</text>
   <rect width="204" height="20" x="71" y="68" style="fill:#007;stroke:black;"/>
   <text width="204" height="20" x="76" y="82" style="fill:#fff;" font-family="Arial" font-size="16px"> Address_Town</text>
   <rect width="204" height="20" x="71" y="88" style="fill:#aea;stroke:black;"/>
   <text width="204" height="20" x="76" y="102" style="fill:black;" font-family="Arial" font-size="16px">ID</text>
   <rect width="204" height="20" x="71" y="108" style="fill:none;stroke:black;"/>
   <text width="204" height="20" x="76" y="122" style="fill:black;" font-family="Arial" font-size="16px">Name</text>
   <rect width="204" height="20" x="74" y="281" style="fill:#007;stroke:black;"/>
   <text width="204" height="20" x="79" y="295" style="fill:#fff;" font-family="Arial" font-size="16px"> Amenity</text>
   <rect width="204" height="20" x="74" y="301" style="fill:#aea;stroke:black;"/>
   <text width="204" height="20" x="79" y="315" style="fill:black;" font-family="Arial" font-size="16px">ID</text>
   <rect width="204" height="20" x="74" y="321" style="fill:none;stroke:black;"/>
   <text width="204" height="20" x="79" y="335" style="fill:black;" font-family="Arial" font-size="16px">Name</text>
   <rect width="204" height="20" x="73" y="364" style="fill:#007;stroke:black;"/>
   <text width="204" height="20" x="78" y="378" style="fill:#fff;" font-family="Arial" font-size="16px"> Amenity_Join</text>
   <rect width="204" height="20" x="73" y="384" style="fill:#aea;stroke:black;"/>
   <text width="204" height="20" x="78" y="398" style="fill:black;" font-family="Arial" font-size="16px">ID</text>
   <rect width="204" height="20" x="73" y="404" style="fill:none;stroke:black;"/>
   <text width="204" height="20" x="78" y="418" style="fill:black;" font-family="Arial" font-size="16px">Accommodation_ID</text>
   <rect width="204" height="20" x="73" y="424" style="fill:none;stroke:black;"/>
   <text width="204" height="20" x="78" y="438" style="fill:black;" font-family="Arial" font-size="16px">Amenity_ID</text>
   <rect width="204" height="20" x="710" y="398" style="fill:#007;stroke:black;"/>
   <text width="204" height="20" x="715" y="412" style="fill:#fff;" font-family="Arial" font-size="16px"> Package</text>
   <rect width="204" height="20" x="710" y="418" style="fill:#aea;stroke:black;"/>
   <text width="204" height="20" x="715" y="432" style="fill:black;" font-family="Arial" font-size="16px">ID</text>
   <rect width="204" height="20" x="710" y="438" style="fill:none;stroke:black;"/>
   <text width="204" height="20" x="715" y="452" style="fill:black;" font-family="Arial" font-size="16px">Type_ID</text>
   <rect width="204" height="20" x="710" y="458" style="fill:none;stroke:black;"/>
   <text width="204" height="20" x="715" y="472" style="fill:black;" font-family="Arial" font-size="16px">Address_ID</text>
   <rect width="204" height="20" x="710" y="478" style="fill:none;stroke:black;"/>
   <text width="204" height="20" x="715" y="492" style="fill:black;" font-family="Arial" font-size="16px">Duration</text>
   <rect width="204" height="20" x="710" y="498" style="fill:none;stroke:black;"/>
   <text width="204" height="20" x="715" y="512" style="fill:black;" font-family="Arial" font-size="16px">Price</text>
   <rect width="204" height="20" x="701" y="557" style="fill:#007;stroke:black;"/>
   <text width="204" height="20" x="706" y="571" style="fill:#fff;" font-family="Arial" font-size="16px"> Package_Type</text>
   <rect width="204" height="20" x="701" y="577" style="fill:#aea;stroke:black;"/>
   <text width="204" height="20" x="706" y="591" style="fill:black;" font-family="Arial" font-size="16px">ID</text>
   <rect width="204" height="20" x="701" y="597" style="fill:none;stroke:black;"/>
   <text width="204" height="20" x="706" y="611" style="fill:black;" font-family="Arial" font-size="16px">Name</text>
   <rect width="204" height="20" x="914" y="14" style="fill:#007;stroke:black;"/>
   <text width="204" height="20" x="919" y="28" style="fill:#fff;" font-family="Arial" font-size="16px"> Payment</text>
   <rect width="204" height="20" x="914" y="34" style="fill:#aea;stroke:black;"/>
   <text width="204" height="20" x="919" y="48" style="fill:black;" font-family="Arial" font-size="16px">ID</text>
   <rect width="204" height="20" x="914" y="54" style="fill:none;stroke:black;"/>
   <text width="204" height="20" x="919" y="68" style="fill:black;" font-family="Arial" font-size="16px">Reservation_ID</text>
   <rect width="204" height="20" x="914" y="74" style="fill:none;stroke:black;"/>
   <text width="204" height="20" x="919" y="88" style="fill:black;" font-family="Arial" font-size="16px">Date</text>
   <rect width="204" height="20" x="914" y="94" style="fill:none;stroke:black;"/>
   <text width="204" height="20" x="919" y="108" style="fill:black;" font-family="Arial" font-size="16px">Amount</text>
   <rect width="204" height="20" x="914" y="114" style="fill:none;stroke:black;"/>
   <text width="204" height="20" x="919" y="128" style="fill:black;" font-family="Arial" font-size="16px">Method</text>
   <rect width="204" height="20" x="914" y="134" style="fill:none;stroke:black;"/>
   <text width="204" height="20" x="919" y="148" style="fill:black;" font-family="Arial" font-size="16px">Status</text>
   <rect width="204" height="20" x="612" y="9" style="fill:#007;stroke:black;"/>
   <text width="204" height="20" x="617" y="23" style="fill:#fff;" font-family="Arial" font-size="16px"> Payment_Method</text>
   <rect width="204" height="20" x="612" y="29" style="fill:#aea;stroke:black;"/>
   <text width="204" height="20" x="617" y="43" style="fill:black;" font-family="Arial" font-size="16px">ID</text>
   <rect width="204" height="20" x="612" y="49" style="fill:none;stroke:black;"/>
   <text width="204" height="20" x="617" y="63" style="fill:black;" font-family="Arial" font-size="16px">Name</text>
   <rect width="204" height="20" x="589" y="209" style="fill:#007;stroke:black;"/>
   <text width="204" height="20" x="594" y="223" style="fill:#fff;" font-family="Arial" font-size="16px"> Reservation</text>
   <rect width="204" height="20" x="589" y="229" style="fill:#aea;stroke:black;"/>
   <text width="204" height="20" x="594" y="243" style="fill:black;" font-family="Arial" font-size="16px">ID</text>
   <rect width="204" height="20" x="589" y="249" style="fill:none;stroke:black;"/>
   <text width="204" height="20" x="594" y="263" style="fill:black;" font-family="Arial" font-size="16px">Client_ID</text>
   <rect width="204" height="20" x="589" y="269" style="fill:none;stroke:black;"/>
   <text width="204" height="20" x="594" y="283" style="fill:black;" font-family="Arial" font-size="16px">Package_ID</text>
   <rect width="204" height="20" x="589" y="289" style="fill:none;stroke:black;"/>
   <text width="204" height="20" x="594" y="303" style="fill:black;" font-family="Arial" font-size="16px">Transportation_ID</text>
   <rect width="204" height="20" x="589" y="309" style="fill:none;stroke:black;"/>
   <text width="204" height="20" x="594" y="323" style="fill:black;" font-family="Arial" font-size="16px">Accommodation_ID</text>
   <rect width="204" height="20" x="589" y="329" style="fill:none;stroke:black;"/>
   <text width="204" height="20" x="594" y="343" style="fill:black;" font-family="Arial" font-size="16px">Status</text>
   <rect width="204" height="20" x="1038" y="220" style="fill:#007;stroke:black;"/>
   <text width="204" height="20" x="1043" y="234" style="fill:#fff;" font-family="Arial" font-size="16px"> Review</text>
   <rect width="204" height="20" x="1038" y="240" style="fill:#aea;stroke:black;"/>
   <text width="204" height="20" x="1043" y="254" style="fill:black;" font-family="Arial" font-size="16px">ID</text>
   <rect width="204" height="20" x="1038" y="260" style="fill:none;stroke:black;"/>
   <text width="204" height="20" x="1043" y="274" style="fill:black;" font-family="Arial" font-size="16px">User_ID</text>
   <rect width="204" height="20" x="1038" y="280" style="fill:none;stroke:black;"/>
   <text width="204" height="20" x="1043" y="294" style="fill:black;" font-family="Arial" font-size="16px">Package_ID</text>
   <rect width="204" height="20" x="1038" y="300" style="fill:none;stroke:black;"/>
   <text width="204" height="20" x="1043" y="314" style="fill:black;" font-family="Arial" font-size="16px">Transportation_ID</text>
   <rect width="204" height="20" x="1038" y="320" style="fill:none;stroke:black;"/>
   <text width="204" height="20" x="1043" y="334" style="fill:black;" font-family="Arial" font-size="16px">Accommodation_ID</text>
   <rect width="204" height="20" x="1038" y="340" style="fill:none;stroke:black;"/>
   <text width="204" height="20" x="1043" y="354" style="fill:black;" font-family="Arial" font-size="16px">Title</text>
   <rect width="204" height="20" x="1038" y="360" style="fill:none;stroke:black;"/>
   <text width="204" height="20" x="1043" y="374" style="fill:black;" font-family="Arial" font-size="16px">Content</text>
   <rect width="204" height="20" x="1038" y="380" style="fill:none;stroke:black;"/>
   <text width="204" height="20" x="1043" y="394" style="fill:black;" font-family="Arial" font-size="16px">Rating</text>
   <rect width="204" height="20" x="73" y="179" style="fill:#007;stroke:black;"/>
   <text width="204" height="20" x="78" y="193" style="fill:#fff;" font-family="Arial" font-size="16px"> Room_Type</text>
   <rect width="204" height="20" x="73" y="199" style="fill:#aea;stroke:black;"/>
   <text width="204" height="20" x="78" y="213" style="fill:black;" font-family="Arial" font-size="16px">ID</text>
   <rect width="204" height="20" x="73" y="219" style="fill:none;stroke:black;"/>
   <text width="204" height="20" x="78" y="233" style="fill:black;" font-family="Arial" font-size="16px">Name</text>
   <rect width="204" height="20" x="73" y="239" style="fill:none;stroke:black;"/>
   <text width="204" height="20" x="78" y="253" style="fill:black;" font-family="Arial" font-size="16px">Description</text>
   <rect width="204" height="20" x="1321" y="558" style="fill:#007;stroke:black;"/>
   <text width="204" height="20" x="1326" y="572" style="fill:#fff;" font-family="Arial" font-size="16px"> Transportation</text>
   <rect width="204" height="20" x="1321" y="578" style="fill:#aea;stroke:black;"/>
   <text width="204" height="20" x="1326" y="592" style="fill:black;" font-family="Arial" font-size="16px">ID</text>
   <rect width="204" height="20" x="1321" y="598" style="fill:none;stroke:black;"/>
   <text width="204" height="20" x="1326" y="612" style="fill:black;" font-family="Arial" font-size="16px">Type_ID</text>
   <rect width="204" height="20" x="1321" y="618" style="fill:none;stroke:black;"/>
   <text width="204" height="20" x="1326" y="632" style="fill:black;" font-family="Arial" font-size="16px">Provider_ID</text>
   <rect width="204" height="20" x="1321" y="638" style="fill:none;stroke:black;"/>
   <text width="204" height="20" x="1326" y="652" style="fill:black;" font-family="Arial" font-size="16px">Date_Departure</text>
   <rect width="204" height="20" x="1321" y="658" style="fill:none;stroke:black;"/>
   <text width="204" height="20" x="1326" y="672" style="fill:black;" font-family="Arial" font-size="16px">Date_Arrival</text>
   <rect width="204" height="20" x="1321" y="678" style="fill:none;stroke:black;"/>
   <text width="204" height="20" x="1326" y="692" style="fill:black;" font-family="Arial" font-size="16px">Ticket_Num</text>
   <rect width="204" height="20" x="1321" y="698" style="fill:none;stroke:black;"/>
   <text width="204" height="20" x="1326" y="712" style="fill:black;" font-family="Arial" font-size="16px">Ticket_Price</text>
   <rect width="204" height="20" x="1321" y="718" style="fill:none;stroke:black;"/>
   <text width="204" height="20" x="1326" y="732" style="fill:black;" font-family="Arial" font-size="16px">Seat_Num</text>
   <rect width="204" height="20" x="1321" y="738" style="fill:none;stroke:black;"/>
   <text width="204" height="20" x="1326" y="752" style="fill:black;" font-family="Arial" font-size="16px">Address_Depature_ID</text>
   <rect width="204" height="20" x="1321" y="758" style="fill:none;stroke:black;"/>
   <text width="204" height="20" x="1326" y="772" style="fill:black;" font-family="Arial" font-size="16px">Address_Arrival_ID</text>
   <rect width="204" height="20" x="971" y="568" style="fill:#007;stroke:black;"/>
   <text width="204" height="20" x="976" y="582" style="fill:#fff;" font-family="Arial" font-size="16px"> Transportation_Join</text>
   <rect width="204" height="20" x="971" y="588" style="fill:#aea;stroke:black;"/>
   <text width="204" height="20" x="976" y="602" style="fill:black;" font-family="Arial" font-size="16px">ID</text>
   <rect width="204" height="20" x="971" y="608" style="fill:none;stroke:black;"/>
   <text width="204" height="20" x="976" y="622" style="fill:black;" font-family="Arial" font-size="16px">Package_ID</text>
   <rect width="204" height="20" x="971" y="628" style="fill:none;stroke:black;"/>
   <text width="204" height="20" x="976" y="642" style="fill:black;" font-family="Arial" font-size="16px">Transportation_ID</text>
   <rect width="204" height="20" x="1315" y="308" style="fill:#007;stroke:black;"/>
   <text width="204" height="20" x="1320" y="322" style="fill:#fff;" font-family="Arial" font-size="16px"> Transportation_Preferences</text>
   <rect width="204" height="20" x="1315" y="328" style="fill:#aea;stroke:black;"/>
   <text width="204" height="20" x="1320" y="342" style="fill:black;" font-family="Arial" font-size="16px">ID</text>
   <rect width="204" height="20" x="1315" y="348" style="fill:none;stroke:black;"/>
   <text width="204" height="20" x="1320" y="362" style="fill:black;" font-family="Arial" font-size="16px">User_ID</text>
   <rect width="204" height="20" x="1315" y="368" style="fill:none;stroke:black;"/>
   <text width="204" height="20" x="1320" y="382" style="fill:black;" font-family="Arial" font-size="16px">Transport_ID</text>
   <rect width="204" height="20" x="956" y="687" style="fill:#007;stroke:black;"/>
   <text width="204" height="20" x="961" y="701" style="fill:#fff;" font-family="Arial" font-size="16px"> Transportation_Provider</text>
   <rect width="204" height="20" x="956" y="707" style="fill:#aea;stroke:black;"/>
   <text width="204" height="20" x="961" y="721" style="fill:black;" font-family="Arial" font-size="16px">ID</text>
   <rect width="204" height="20" x="956" y="727" style="fill:none;stroke:black;"/>
   <text width="204" height="20" x="961" y="741" style="fill:black;" font-family="Arial" font-size="16px">Name</text>
   <rect width="204" height="20" x="1324" y="427" style="fill:#007;stroke:black;"/>
   <text width="204" height="20" x="1329" y="441" style="fill:#fff;" font-family="Arial" font-size="16px"> Transportation_Type</text>
   <rect width="204" height="20" x="1324" y="447" style="fill:#aea;stroke:black;"/>
   <text width="204" height="20" x="1329" y="461" style="fill:black;" font-family="Arial" font-size="16px">ID</text>
   <rect width="204" height="20" x="1324" y="467" style="fill:none;stroke:black;"/>
   <text width="204" height="20" x="1329" y="481" style="fill:black;" font-family="Arial" font-size="16px">Name</text>
   <rect width="204" height="20" x="1439" y="7" style="fill:#007;stroke:black;"/>
   <text width="204" height="20" x="1444" y="21" style="fill:#fff;" font-family="Arial" font-size="16px"> User</text>
   <rect width="204" height="20" x="1439" y="27" style="fill:#aea;stroke:black;"/>
   <text width="204" height="20" x="1444" y="41" style="fill:black;" font-family="Arial" font-size="16px">ID</text>
   <rect width="204" height="20" x="1439" y="47" style="fill:none;stroke:black;"/>
   <text width="204" height="20" x="1444" y="61" style="fill:black;" font-family="Arial" font-size="16px">First_Name</text>
   <rect width="204" height="20" x="1439" y="67" style="fill:none;stroke:black;"/>
   <text width="204" height="20" x="1444" y="81" style="fill:black;" font-family="Arial" font-size="16px">Last_Name</text>
   <rect width="204" height="20" x="1439" y="87" style="fill:none;stroke:black;"/>
   <text width="204" height="20" x="1444" y="101" style="fill:black;" font-family="Arial" font-size="16px">Email</text>
   <rect width="204" height="20" x="1439" y="107" style="fill:none;stroke:black;"/>
   <text width="204" height="20" x="1444" y="121" style="fill:black;" font-family="Arial" font-size="16px">Password</text>
   <rect width="204" height="20" x="1439" y="127" style="fill:none;stroke:black;"/>
   <text width="204" height="20" x="1444" y="141" style="fill:black;" font-family="Arial" font-size="16px">Phone</text>
   <rect width="204" height="20" x="1439" y="147" style="fill:none;stroke:black;"/>
   <text width="204" height="20" x="1444" y="161" style="fill:black;" font-family="Arial" font-size="16px">Loyalty_Points</text>
   <rect width="204" height="20" x="1439" y="167" style="fill:none;stroke:black;"/>
   <text width="204" height="20" x="1444" y="181" style="fill:black;" font-family="Arial" font-size="16px">Birth_Date</text>
   <rect width="204" height="20" x="1439" y="187" style="fill:none;stroke:black;"/>
   <text width="204" height="20" x="1444" y="201" style="fill:black;" font-family="Arial" font-size="16px">Creation_Date</text>
   <rect width="204" height="20" x="1439" y="207" style="fill:none;stroke:black;"/>
   <text width="204" height="20" x="1444" y="221" style="fill:black;" font-family="Arial" font-size="16px">Last_Login</text>
   <rect width="204" height="20" x="1439" y="227" style="fill:none;stroke:black;"/>
   <text width="204" height="20" x="1444" y="241" style="fill:black;" font-family="Arial" font-size="16px">Is_Admin</text>
</svg>
